<svg xmlns="http://www.w3.org/2000/svg" width="100%" height="100%" viewBox="0 0 680 380" preserveAspectRatio="xMidYMid slice">
<defs>
<style>
@keyframes sway1{0%,100%{transform:rotate(-4deg)}50%{transform:rotate(4deg)}}
@keyframes sway2{0%,100%{transform:rotate(3deg)}50%{transform:rotate(-5deg)}}
@keyframes sway3{0%,100%{transform:rotate(-3deg)}50%{transform:rotate(5deg)}}
@keyframes sway4{0%,100%{transform:rotate(5deg)}50%{transform:rotate(-3deg)}}
.f1{animation:sway1 3s ease-in-out infinite}
.f2{animation:sway2 3.5s ease-in-out infinite}
.f3{animation:sway3 2.8s ease-in-out infinite}
.f4{animation:sway4 4s ease-in-out infinite}
.f5{animation:sway1 3.2s ease-in-out infinite 0.5s}
.f6{animation:sway2 2.6s ease-in-out infinite 1s}
.f7{animation:sway3 3.8s ease-in-out infinite 0.3s}
.f8{animation:sway4 3.1s ease-in-out infinite 0.7s}
@keyframes cl1kf{0%{transform:translateX(-220px)}100%{transform:translateX(900px)}}
@keyframes cl2kf{0%{transform:translateX(-320px)}100%{transform:translateX(900px)}}
@keyframes cl3kf{0%{transform:translateX(-180px)}100%{transform:translateX(900px)}}
.cl1{animation:cl1kf 18s linear infinite}
.cl2{animation:cl2kf 26s linear infinite 7s}
.cl3{animation:cl3kf 22s linear infinite 13s}
@keyframes walkdog{0%{transform:translateX(-120px)}100%{transform:translateX(760px)}}
.dog-walk{animation:walkdog 13s linear infinite}
@keyframes legF{0%,100%{transform:rotate(-22deg)}50%{transform:rotate(22deg)}}
@keyframes legB{0%,100%{transform:rotate(22deg)}50%{transform:rotate(-22deg)}}
@keyframes tailwag{0%,100%{transform:rotate(-15deg)}50%{transform:rotate(25deg)}}
.lf1{animation:legF 0.42s ease-in-out infinite;transform-box:fill-box;transform-origin:50% 0%}
.lf2{animation:legB 0.42s ease-in-out infinite;transform-box:fill-box;transform-origin:50% 0%}
.lb1{animation:legF 0.42s ease-in-out infinite 0.21s;transform-box:fill-box;transform-origin:50% 0%}
.lb2{animation:legB 0.42s ease-in-out infinite 0.21s;transform-box:fill-box;transform-origin:50% 0%}
.tail{animation:tailwag 0.42s ease-in-out infinite;transform-box:fill-box;transform-origin:100% 100%}
</style>
</defs>

<rect width="680" height="228" fill="#87c4e8"/>
<rect x="0" y="228" width="680" height="152" fill="#6aaa5a"/>
<rect x="0" y="248" width="680" height="132" fill="#5a9a4a"/>
<rect x="0" y="278" width="680" height="102" fill="#4a8a3a"/>
<rect x="0" y="340" width="680" height="40" fill="#3a7a2a"/>
<rect x="0" y="368" width="680" height="12" fill="#2a6a18"/>

<rect x="580" y="22" width="28" height="28" fill="#ffd020" rx="2"/>
<rect x="572" y="30" width="8" height="12" fill="#ffd020"/><rect x="608" y="30" width="8" height="12" fill="#ffd020"/>
<rect x="586" y="14" width="16" height="8" fill="#ffd020"/><rect x="586" y="50" width="16" height="8" fill="#ffd020"/>
<rect x="574" y="18" width="8" height="8" fill="#ffd020"/><rect x="604" y="18" width="8" height="8" fill="#ffd020"/>
<rect x="574" y="46" width="8" height="8" fill="#ffd020"/><rect x="604" y="46" width="8" height="8" fill="#ffd020"/>
<rect x="586" y="30" width="16" height="16" fill="#ffe860"/>

<g class="cl1"><rect x="0" y="60" width="10" height="10" fill="#fff" opacity=".93"/><rect x="10" y="54" width="22" height="10" fill="#fff" opacity=".93"/><rect x="32" y="60" width="10" height="10" fill="#fff" opacity=".93"/><rect x="-4" y="66" width="48" height="10" fill="#fff" opacity=".93"/><rect x="0" y="76" width="40" height="8" fill="#eee" opacity=".8"/></g>
<g class="cl2"><rect x="0" y="40" width="10" height="10" fill="#fff" opacity=".88"/><rect x="10" y="34" width="28" height="10" fill="#fff" opacity=".88"/><rect x="38" y="40" width="10" height="10" fill="#fff" opacity=".88"/><rect x="-4" y="46" width="56" height="10" fill="#fff" opacity=".88"/><rect x="0" y="56" width="46" height="8" fill="#eee" opacity=".76"/></g>
<g class="cl3"><rect x="0" y="80" width="8" height="8" fill="#fff" opacity=".8"/><rect x="8" y="74" width="18" height="8" fill="#fff" opacity=".8"/><rect x="26" y="80" width="8" height="8" fill="#fff" opacity=".8"/><rect x="-4" y="84" width="38" height="8" fill="#fff" opacity=".8"/><rect x="0" y="92" width="30" height="6" fill="#eee" opacity=".7"/></g>

<g class="f1" style="transform-origin:30px 244px"><rect x="28" y="228" width="4" height="16" fill="#4a7a20"/><rect x="24" y="220" width="4" height="4" fill="#e84040"/><rect x="28" y="216" width="4" height="4" fill="#e84040"/><rect x="32" y="220" width="4" height="4" fill="#e84040"/><rect x="24" y="228" width="4" height="4" fill="#e84040"/><rect x="32" y="228" width="4" height="4" fill="#e84040"/><rect x="24" y="232" width="4" height="4" fill="#e84040"/><rect x="28" y="232" width="4" height="4" fill="#e84040"/><rect x="32" y="232" width="4" height="4" fill="#e84040"/><rect x="28" y="224" width="4" height="4" fill="#ffd020"/></g>
<g class="f2" style="transform-origin:100px 244px"><rect x="98" y="228" width="4" height="16" fill="#4a7a20"/><rect x="94" y="220" width="4" height="4" fill="#ff80c0"/><rect x="98" y="216" width="4" height="4" fill="#ff80c0"/><rect x="102" y="220" width="4" height="4" fill="#ff80c0"/><rect x="94" y="228" width="4" height="4" fill="#ff80c0"/><rect x="102" y="228" width="4" height="4" fill="#ff80c0"/><rect x="94" y="232" width="4" height="4" fill="#ff80c0"/><rect x="98" y="232" width="4" height="4" fill="#ff80c0"/><rect x="102" y="232" width="4" height="4" fill="#ff80c0"/><rect x="98" y="224" width="4" height="4" fill="#fff"/></g>
<g class="f3" style="transform-origin:175px 244px"><rect x="173" y="228" width="4" height="16" fill="#4a7a20"/><rect x="169" y="220" width="4" height="4" fill="#c060e0"/><rect x="173" y="216" width="4" height="4" fill="#c060e0"/><rect x="177" y="220" width="4" height="4" fill="#c060e0"/><rect x="169" y="228" width="4" height="4" fill="#c060e0"/><rect x="177" y="228" width="4" height="4" fill="#c060e0"/><rect x="169" y="232" width="4" height="4" fill="#c060e0"/><rect x="173" y="232" width="4" height="4" fill="#c060e0"/><rect x="177" y="232" width="4" height="4" fill="#c060e0"/><rect x="173" y="224" width="4" height="4" fill="#ffd020"/></g>
<g class="f4" style="transform-origin:255px 244px"><rect x="253" y="228" width="4" height="16" fill="#4a7a20"/><rect x="249" y="220" width="4" height="4" fill="#e84040"/><rect x="253" y="216" width="4" height="4" fill="#e84040"/><rect x="257" y="220" width="4" height="4" fill="#e84040"/><rect x="249" y="228" width="4" height="4" fill="#e84040"/><rect x="257" y="228" width="4" height="4" fill="#e84040"/><rect x="249" y="232" width="4" height="4" fill="#e84040"/><rect x="253" y="232" width="4" height="4" fill="#e84040"/><rect x="257" y="232" width="4" height="4" fill="#e84040"/><rect x="253" y="224" width="4" height="4" fill="#ffd020"/></g>
<g class="f5" style="transform-origin:335px 244px"><rect x="333" y="228" width="4" height="16" fill="#4a7a20"/><rect x="329" y="220" width="4" height="4" fill="#ff80c0"/><rect x="333" y="216" width="4" height="4" fill="#ff80c0"/><rect x="337" y="220" width="4" height="4" fill="#ff80c0"/><rect x="329" y="228" width="4" height="4" fill="#ff80c0"/><rect x="337" y="228" width="4" height="4" fill="#ff80c0"/><rect x="329" y="232" width="4" height="4" fill="#ff80c0"/><rect x="333" y="232" width="4" height="4" fill="#ff80c0"/><rect x="337" y="232" width="4" height="4" fill="#ff80c0"/><rect x="333" y="224" width="4" height="4" fill="#fff"/></g>
<g class="f6" style="transform-origin:415px 244px"><rect x="413" y="228" width="4" height="16" fill="#4a7a20"/><rect x="409" y="220" width="4" height="4" fill="#c060e0"/><rect x="413" y="216" width="4" height="4" fill="#c060e0"/><rect x="417" y="220" width="4" height="4" fill="#c060e0"/><rect x="409" y="228" width="4" height="4" fill="#c060e0"/><rect x="417" y="228" width="4" height="4" fill="#c060e0"/><rect x="409" y="232" width="4" height="4" fill="#c060e0"/><rect x="413" y="232" width="4" height="4" fill="#c060e0"/><rect x="417" y="232" width="4" height="4" fill="#c060e0"/><rect x="413" y="224" width="4" height="4" fill="#ffd020"/></g>
<g class="f7" style="transform-origin:495px 244px"><rect x="493" y="228" width="4" height="16" fill="#4a7a20"/><rect x="489" y="220" width="4" height="4" fill="#ffd020"/><rect x="493" y="216" width="4" height="4" fill="#ffd020"/><rect x="497" y="220" width="4" height="4" fill="#ffd020"/><rect x="489" y="228" width="4" height="4" fill="#ffd020"/><rect x="497" y="228" width="4" height="4" fill="#ffd020"/><rect x="489" y="232" width="4" height="4" fill="#ffd020"/><rect x="493" y="232" width="4" height="4" fill="#ffd020"/><rect x="497" y="232" width="4" height="4" fill="#ffd020"/><rect x="493" y="224" width="4" height="4" fill="#e84040"/></g>
<g class="f8" style="transform-origin:575px 244px"><rect x="573" y="228" width="4" height="16" fill="#4a7a20"/><rect x="569" y="220" width="4" height="4" fill="#e84040"/><rect x="573" y="216" width="4" height="4" fill="#e84040"/><rect x="577" y="220" width="4" height="4" fill="#e84040"/><rect x="569" y="228" width="4" height="4" fill="#e84040"/><rect x="577" y="228" width="4" height="4" fill="#e84040"/><rect x="569" y="232" width="4" height="4" fill="#e84040"/><rect x="573" y="232" width="4" height="4" fill="#e84040"/><rect x="577" y="232" width="4" height="4" fill="#e84040"/><rect x="573" y="224" width="4" height="4" fill="#ffd020"/></g>
<g class="f1" style="transform-origin:650px 244px"><rect x="648" y="228" width="4" height="16" fill="#4a7a20"/><rect x="644" y="220" width="4" height="4" fill="#ff80c0"/><rect x="648" y="216" width="4" height="4" fill="#ff80c0"/><rect x="652" y="220" width="4" height="4" fill="#ff80c0"/><rect x="644" y="228" width="4" height="4" fill="#ff80c0"/><rect x="652" y="228" width="4" height="4" fill="#ff80c0"/><rect x="644" y="232" width="4" height="4" fill="#ff80c0"/><rect x="648" y="232" width="4" height="4" fill="#ff80c0"/><rect x="652" y="232" width="4" height="4" fill="#ff80c0"/><rect x="648" y="224" width="4" height="4" fill="#fff"/></g>

<g class="f4" style="transform-origin:60px 268px"><rect x="58" y="254" width="4" height="14" fill="#3a6a18"/><rect x="54" y="246" width="4" height="4" fill="#e84040"/><rect x="58" y="242" width="4" height="4" fill="#e84040"/><rect x="62" y="246" width="4" height="4" fill="#e84040"/><rect x="54" y="254" width="4" height="4" fill="#e84040"/><rect x="62" y="254" width="4" height="4" fill="#e84040"/><rect x="54" y="258" width="4" height="4" fill="#e84040"/><rect x="58" y="258" width="4" height="4" fill="#e84040"/><rect x="62" y="258" width="4" height="4" fill="#e84040"/><rect x="58" y="250" width="4" height="4" fill="#ffd020"/></g>
<g class="f5" style="transform-origin:140px 268px"><rect x="138" y="254" width="4" height="14" fill="#3a6a18"/><rect x="134" y="246" width="4" height="4" fill="#c060e0"/><rect x="138" y="242" width="4" height="4" fill="#c060e0"/><rect x="142" y="246" width="4" height="4" fill="#c060e0"/><rect x="134" y="254" width="4" height="4" fill="#c060e0"/><rect x="142" y="254" width="4" height="4" fill="#c060e0"/><rect x="134" y="258" width="4" height="4" fill="#c060e0"/><rect x="138" y="258" width="4" height="4" fill="#c060e0"/><rect x="142" y="258" width="4" height="4" fill="#c060e0"/><rect x="138" y="250" width="4" height="4" fill="#ffd020"/></g>
<g class="f6" style="transform-origin:220px 268px"><rect x="218" y="254" width="4" height="14" fill="#3a6a18"/><rect x="214" y="246" width="4" height="4" fill="#ff80c0"/><rect x="218" y="242" width="4" height="4" fill="#ff80c0"/><rect x="222" y="246" width="4" height="4" fill="#ff80c0"/><rect x="214" y="254" width="4" height="4" fill="#ff80c0"/><rect x="222" y="254" width="4" height="4" fill="#ff80c0"/><rect x="214" y="258" width="4" height="4" fill="#ff80c0"/><rect x="218" y="258" width="4" height="4" fill="#ff80c0"/><rect x="222" y="258" width="4" height="4" fill="#ff80c0"/><rect x="218" y="250" width="4" height="4" fill="#fff"/></g>
<g class="f7" style="transform-origin:300px 268px"><rect x="298" y="254" width="4" height="14" fill="#3a6a18"/><rect x="294" y="246" width="4" height="4" fill="#ffd020"/><rect x="298" y="242" width="4" height="4" fill="#ffd020"/><rect x="302" y="246" width="4" height="4" fill="#ffd020"/><rect x="294" y="254" width="4" height="4" fill="#ffd020"/><rect x="302" y="254" width="4" height="4" fill="#ffd020"/><rect x="294" y="258" width="4" height="4" fill="#ffd020"/><rect x="298" y="258" width="4" height="4" fill="#ffd020"/><rect x="302" y="258" width="4" height="4" fill="#ffd020"/><rect x="298" y="250" width="4" height="4" fill="#e84040"/></g>
<g class="f8" style="transform-origin:380px 268px"><rect x="378" y="254" width="4" height="14" fill="#3a6a18"/><rect x="374" y="246" width="4" height="4" fill="#e84040"/><rect x="378" y="242" width="4" height="4" fill="#e84040"/><rect x="382" y="246" width="4" height="4" fill="#e84040"/><rect x="374" y="254" width="4" height="4" fill="#e84040"/><rect x="382" y="254" width="4" height="4" fill="#e84040"/><rect x="374" y="258" width="4" height="4" fill="#e84040"/><rect x="378" y="258" width="4" height="4" fill="#e84040"/><rect x="382" y="258" width="4" height="4" fill="#e84040"/><rect x="378" y="250" width="4" height="4" fill="#ffd020"/></g>
<g class="f1" style="transform-origin:460px 268px"><rect x="458" y="254" width="4" height="14" fill="#3a6a18"/><rect x="454" y="246" width="4" height="4" fill="#c060e0"/><rect x="458" y="242" width="4" height="4" fill="#c060e0"/><rect x="462" y="246" width="4" height="4" fill="#c060e0"/><rect x="454" y="254" width="4" height="4" fill="#c060e0"/><rect x="462" y="254" width="4" height="4" fill="#c060e0"/><rect x="454" y="258" width="4" height="4" fill="#c060e0"/><rect x="458" y="258" width="4" height="4" fill="#c060e0"/><rect x="462" y="258" width="4" height="4" fill="#c060e0"/><rect x="458" y="250" width="4" height="4" fill="#ffd020"/></g>
<g class="f2" style="transform-origin:540px 268px"><rect x="538" y="254" width="4" height="14" fill="#3a6a18"/><rect x="534" y="246" width="4" height="4" fill="#ff80c0"/><rect x="538" y="242" width="4" height="4" fill="#ff80c0"/><rect x="542" y="246" width="4" height="4" fill="#ff80c0"/><rect x="534" y="254" width="4" height="4" fill="#ff80c0"/><rect x="542" y="254" width="4" height="4" fill="#ff80c0"/><rect x="534" y="258" width="4" height="4" fill="#ff80c0"/><rect x="538" y="258" width="4" height="4" fill="#ff80c0"/><rect x="542" y="258" width="4" height="4" fill="#ff80c0"/><rect x="538" y="250" width="4" height="4" fill="#fff"/></g>
<g class="f3" style="transform-origin:620px 268px"><rect x="618" y="254" width="4" height="14" fill="#3a6a18"/><rect x="614" y="246" width="4" height="4" fill="#ffd020"/><rect x="618" y="242" width="4" height="4" fill="#ffd020"/><rect x="622" y="246" width="4" height="4" fill="#ffd020"/><rect x="614" y="254" width="4" height="4" fill="#ffd020"/><rect x="622" y="254" width="4" height="4" fill="#ffd020"/><rect x="614" y="258" width="4" height="4" fill="#ffd020"/><rect x="618" y="258" width="4" height="4" fill="#ffd020"/><rect x="622" y="258" width="4" height="4" fill="#ffd020"/><rect x="618" y="250" width="4" height="4" fill="#e84040"/></g>

<g class="f7" style="transform-origin:30px 296px"><rect x="28" y="282" width="4" height="14" fill="#306010"/><rect x="24" y="274" width="4" height="4" fill="#ff80c0"/><rect x="28" y="270" width="4" height="4" fill="#ff80c0"/><rect x="32" y="274" width="4" height="4" fill="#ff80c0"/><rect x="24" y="282" width="4" height="4" fill="#ff80c0"/><rect x="32" y="282" width="4" height="4" fill="#ff80c0"/><rect x="24" y="286" width="4" height="4" fill="#ff80c0"/><rect x="28" y="286" width="4" height="4" fill="#ff80c0"/><rect x="32" y="286" width="4" height="4" fill="#ff80c0"/><rect x="28" y="278" width="4" height="4" fill="#fff"/></g>
<g class="f8" style="transform-origin:110px 296px"><rect x="108" y="282" width="4" height="14" fill="#306010"/><rect x="104" y="274" width="4" height="4" fill="#c060e0"/><rect x="108" y="270" width="4" height="4" fill="#c060e0"/><rect x="112" y="274" width="4" height="4" fill="#c060e0"/><rect x="104" y="282" width="4" height="4" fill="#c060e0"/><rect x="112" y="282" width="4" height="4" fill="#c060e0"/><rect x="104" y="286" width="4" height="4" fill="#c060e0"/><rect x="108" y="286" width="4" height="4" fill="#c060e0"/><rect x="112" y="286" width="4" height="4" fill="#c060e0"/><rect x="108" y="278" width="4" height="4" fill="#ffd020"/></g>
<g class="f1" style="transform-origin:196px 296px"><rect x="194" y="282" width="4" height="14" fill="#306010"/><rect x="190" y="274" width="4" height="4" fill="#e84040"/><rect x="194" y="270" width="4" height="4" fill="#e84040"/><rect x="198" y="274" width="4" height="4" fill="#e84040"/><rect x="190" y="282" width="4" height="4" fill="#e84040"/><rect x="198" y="282" width="4" height="4" fill="#e84040"/><rect x="190" y="286" width="4" height="4" fill="#e84040"/><rect x="194" y="286" width="4" height="4" fill="#e84040"/><rect x="198" y="286" width="4" height="4" fill="#e84040"/><rect x="194" y="278" width="4" height="4" fill="#ffd020"/></g>
<g class="f2" style="transform-origin:280px 296px"><rect x="278" y="282" width="4" height="14" fill="#306010"/><rect x="274" y="274" width="4" height="4" fill="#ffd020"/><rect x="278" y="270" width="4" height="4" fill="#ffd020"/><rect x="282" y="274" width="4" height="4" fill="#ffd020"/><rect x="274" y="282" width="4" height="4" fill="#ffd020"/><rect x="282" y="282" width="4" height="4" fill="#ffd020"/><rect x="274" y="286" width="4" height="4" fill="#ffd020"/><rect x="278" y="286" width="4" height="4" fill="#ffd020"/><rect x="282" y="286" width="4" height="4" fill="#ffd020"/><rect x="278" y="278" width="4" height="4" fill="#e84040"/></g>
<g class="f3" style="transform-origin:364px 296px"><rect x="362" y="282" width="4" height="14" fill="#306010"/><rect x="358" y="274" width="4" height="4" fill="#ff80c0"/><rect x="362" y="270" width="4" height="4" fill="#ff80c0"/><rect x="366" y="274" width="4" height="4" fill="#ff80c0"/><rect x="358" y="282" width="4" height="4" fill="#ff80c0"/><rect x="366" y="282" width="4" height="4" fill="#ff80c0"/><rect x="358" y="286" width="4" height="4" fill="#ff80c0"/><rect x="362" y="286" width="4" height="4" fill="#ff80c0"/><rect x="366" y="286" width="4" height="4" fill="#ff80c0"/><rect x="362" y="278" width="4" height="4" fill="#fff"/></g>
<g class="f4" style="transform-origin:448px 296px"><rect x="446" y="282" width="4" height="14" fill="#306010"/><rect x="442" y="274" width="4" height="4" fill="#c060e0"/><rect x="446" y="270" width="4" height="4" fill="#c060e0"/><rect x="450" y="274" width="4" height="4" fill="#c060e0"/><rect x="442" y="282" width="4" height="4" fill="#c060e0"/><rect x="450" y="282" width="4" height="4" fill="#c060e0"/><rect x="442" y="286" width="4" height="4" fill="#c060e0"/><rect x="446" y="286" width="4" height="4" fill="#c060e0"/><rect x="450" y="286" width="4" height="4" fill="#c060e0"/><rect x="446" y="278" width="4" height="4" fill="#ffd020"/></g>
<g class="f5" style="transform-origin:532px 296px"><rect x="530" y="282" width="4" height="14" fill="#306010"/><rect x="526" y="274" width="4" height="4" fill="#e84040"/><rect x="530" y="270" width="4" height="4" fill="#e84040"/><rect x="534" y="274" width="4" height="4" fill="#e84040"/><rect x="526" y="282" width="4" height="4" fill="#e84040"/><rect x="534" y="282" width="4" height="4" fill="#e84040"/><rect x="526" y="286" width="4" height="4" fill="#e84040"/><rect x="530" y="286" width="4" height="4" fill="#e84040"/><rect x="534" y="286" width="4" height="4" fill="#e84040"/><rect x="530" y="278" width="4" height="4" fill="#ffd020"/></g>
<g class="f6" style="transform-origin:616px 296px"><rect x="614" y="282" width="4" height="14" fill="#306010"/><rect x="610" y="274" width="4" height="4" fill="#ffd020"/><rect x="614" y="270" width="4" height="4" fill="#ffd020"/><rect x="618" y="274" width="4" height="4" fill="#ffd020"/><rect x="610" y="282" width="4" height="4" fill="#ffd020"/><rect x="618" y="282" width="4" height="4" fill="#ffd020"/><rect x="610" y="286" width="4" height="4" fill="#ffd020"/><rect x="614" y="286" width="4" height="4" fill="#ffd020"/><rect x="618" y="286" width="4" height="4" fill="#ffd020"/><rect x="614" y="278" width="4" height="4" fill="#e84040"/></g>

<rect x="0" y="305" width="680" height="4" fill="#285808" opacity=".4"/>
<rect x="14" y="299" width="8" height="8" fill="#ffd020"/><rect x="50" y="302" width="8" height="8" fill="#e84040"/><rect x="86" y="298" width="8" height="8" fill="#ff80c0"/><rect x="122" y="301" width="8" height="8" fill="#c060e0"/><rect x="158" y="299" width="8" height="8" fill="#ffd020"/><rect x="194" y="302" width="8" height="8" fill="#e84040"/><rect x="230" y="298" width="8" height="8" fill="#ff80c0"/><rect x="266" y="301" width="8" height="8" fill="#ffd020"/><rect x="302" y="299" width="8" height="8" fill="#c060e0"/><rect x="338" y="302" width="8" height="8" fill="#e84040"/><rect x="374" y="298" width="8" height="8" fill="#ff80c0"/><rect x="410" y="301" width="8" height="8" fill="#ffd020"/><rect x="446" y="299" width="8" height="8" fill="#e84040"/><rect x="482" y="302" width="8" height="8" fill="#c060e0"/><rect x="518" y="298" width="8" height="8" fill="#ff80c0"/><rect x="554" y="301" width="8" height="8" fill="#ffd020"/><rect x="590" y="299" width="8" height="8" fill="#e84040"/><rect x="626" y="302" width="8" height="8" fill="#ff80c0"/><rect x="660" y="299" width="8" height="8" fill="#c060e0"/>

<g class="dog-walk">
  <g class="tail"><rect x="-2" y="270" width="8" height="6" fill="#c8831a" rx="1"/><rect x="-6" y="262" width="8" height="10" fill="#c8831a" rx="1"/><rect x="-4" y="254" width="8" height="10" fill="#e8a040" rx="2"/></g>
  <g class="lb2"><rect x="6" y="298" width="8" height="18" fill="#a06018" rx="1"/><rect x="4" y="314" width="12" height="5" fill="#e0c890" rx="1"/></g>
  <g class="lb1"><rect x="16" y="298" width="8" height="18" fill="#b07020" rx="1"/><rect x="14" y="314" width="12" height="5" fill="#e8d0a0" rx="1"/></g>
  <rect x="0" y="268" width="54" height="32" fill="#c8831a" rx="3"/>
  <rect x="10" y="278" width="36" height="20" fill="#f0deb0" rx="2"/>
  <rect x="0" y="268" width="20" height="16" fill="#a06018"/>
  <rect x="40" y="272" width="14" height="26" fill="#f0deb0" rx="2"/>
  <g class="lf2"><rect x="36" y="298" width="8" height="18" fill="#a06018" rx="1"/><rect x="34" y="314" width="12" height="5" fill="#e0c890" rx="1"/></g>
  <g class="lf1"><rect x="46" y="298" width="8" height="18" fill="#c8831a" rx="1"/><rect x="44" y="314" width="12" height="5" fill="#e8d0a0" rx="1"/></g>
  <rect x="40" y="256" width="16" height="14" fill="#c8831a"/>
  <rect x="36" y="236" width="28" height="24" fill="#c8831a" rx="2"/>
  <rect x="58" y="246" width="14" height="13" fill="#f0deb0" rx="1"/>
  <rect x="64" y="246" width="8" height="6" fill="#1a1a1a" rx="1"/>
  <rect x="46" y="240" width="7" height="7" fill="#1a1a1a" rx="1"/>
  <rect x="47" y="241" width="3" height="3" fill="#fff"/>
  <rect x="36" y="222" width="10" height="18" fill="#c8831a" rx="1"/>
  <rect x="38" y="224" width="6" height="13" fill="#e8a870"/>
  <rect x="52" y="220" width="10" height="18" fill="#c8831a" rx="1"/>
  <rect x="54" y="222" width="6" height="13" fill="#e8a870"/>
</g>

</svg>